name mfd
datacolumns  50
datarows  9
range   0.64000000 0.68000000
cursor 1.0 1.0 0.0
keys m_key
wrap
enforce_loops no
enforce_constraints no
calc_derivatives -1.000000
event_color 0.000000 0.000000 0.000000
endheader

            time      gaitcycle_l        pelvis_tz        pelvis_tx        pelvis_ty      pelvis_tilt      pelvis_list       pelvis_rot       lumbar_ext   lumbar_latbend       lumbar_rot         neck_ext     neck_latbend         neck_rot        arm_add_r       arm_flex_r        arm_rot_r     elbow_flex_r        pro_sup_r     wrist_flex_r        arm_add_l       arm_flex_l        arm_rot_l     elbow_flex_l        pro_sup_l     wrist_flex_l       hip_flex_r        hip_add_r        hip_rot_r        knee_tz_r        knee_tx_r        knee_ty_r      knee_flex_r       knee_add_r       knee_rot_r          pf_tz_r          pf_tx_r          pf_ty_r        pf_flex_r         pf_rot_r        pf_tilt_r       hip_flex_l        hip_add_l        hip_rot_l      knee_flex_l     ankle_flex_l     subt_angle_l      mtp_angle_l     ankle_flex_r     subt_angle_r 
      0.64000000       0.00000000      -0.18125436      -0.79832638       0.90077075      -9.29211209       1.36875019      -0.16532055      -3.55522451      -4.53338249       2.54735548       0.00000000       0.00000000       0.00000000     -15.57239515      13.31504449     -14.07694422      35.63077806      70.00000000       0.00000000     -12.70959408      -5.79179461     -46.38957344      10.80103776      70.00000000       0.00000000      -2.91693557       1.20692791      -8.04907821      -0.00051512       0.00179970       0.00022249      -0.91245417      -0.19461189      -3.17302501       0.00467392       0.04974634       0.00719189       7.76425841       0.80078967      -3.55612677      30.89510223       1.69816205       4.79424250      13.28464036       3.60479112       0.00100000       0.00000000      10.49083062      -0.00100000 
      0.64500000       0.00000000      -0.18147681      -0.79190540       0.89913846      -9.42695099       1.26336773      -0.28714470      -3.41166500      -4.43908561       2.83235521       0.00000000       0.00000000       0.00000000     -15.77000810      13.46455483     -13.97117706      35.89521392      70.00000000       0.00000000     -12.82398281      -6.34035611     -46.93005216      10.72897200      70.00000000       0.00000000      -3.26370079       1.30563158      -7.93047506      -0.00051062       0.00179333       0.00021958      -0.98105378      -0.19901307      -3.18037009       0.00467816       0.04975002       0.00724492       7.74554512       0.80282823      -3.55959780      31.01448132       1.73311248       4.16705983      11.25596725       3.64298753       0.00100000       0.00000000      10.81043330      -0.00100000 
      0.65000000       0.00000000      -0.18170971      -0.78546364       0.89745292      -9.55254619       1.14562423      -0.41773368      -3.27951200      -4.32841905       3.11886706       0.00000000       0.00000000       0.00000000     -15.96595443      13.61670571     -13.87055538      36.14771285      70.00000000       0.00000000     -12.92942309      -6.88305097     -47.48983303      10.67500381      70.00000000       0.00000000      -3.61208902       1.41242915      -7.79336590      -0.00050742       0.00178879       0.00021751      -1.02986098      -0.20214469      -3.18559877       0.00468118       0.04975262       0.00728265       7.73224030       0.80428049      -3.56206537      31.14480692       1.81375115       3.64078595       9.31887120       3.70096757       0.00100000       0.00000000      11.14008689      -0.00100000 
      0.65500000       0.00000000      -0.18195545      -0.77900153       0.89572200      -9.66779044       1.01705155      -0.55569365      -3.16044452      -4.20336021       3.40548054       0.00000000       0.00000000       0.00000000     -16.15908422      13.77097126     -13.77760489      36.38803166      70.00000000       0.00000000     -13.02579685      -7.41817407     -48.06816343      10.63744016      70.00000000       0.00000000      -3.96256929       1.52524501      -7.64071106      -0.00050562       0.00178624       0.00021634      -1.05738388      -0.20391075      -3.18854829       0.00468288       0.04975409       0.00730392       7.72474095       0.80510010      -3.56345614      31.29396341       1.93423856       3.24316333       7.49781678       3.78458101       0.00100000       0.00000000      11.47927119      -0.00100000 
      0.66000000       0.00000000      -0.18221659      -0.77251914       0.89395394      -9.77165206       0.87969050      -0.69943168      -3.05599536      -4.06652032       3.69078109       0.00000000       0.00000000       0.00000000     -16.34819144      13.92658062     -13.69488591      36.61587362      70.00000000       0.00000000     -13.11318345      -7.94384971     -48.66365723      10.61430638      70.00000000       0.00000000      -4.31539482       1.64146410      -7.47589219      -0.00050533       0.00178582       0.00021615      -1.06184267      -0.20419686      -3.18902619       0.00468316       0.04975433       0.00730737       7.72352626       0.80523293      -3.56368140      31.46544427       2.08531819       2.97599616       5.81126499       3.89373184       0.00100000       0.00000000      11.82755296      -0.00100000 
      0.66500000       0.00000000      -0.18249548      -0.76601632       0.89215707      -9.86321960       0.73600103      -0.84728451      -2.96750129      -3.92105906       3.97339350       0.00000000       0.00000000       0.00000000     -16.53196942      14.08256230     -13.62497289      36.83105890      70.00000000       0.00000000     -13.19185386      -8.45820481     -49.27415145      10.60368841      70.00000000       0.00000000      -4.67057225       1.75807012      -7.30234147      -0.00050668       0.00178774       0.00021703      -1.04124160      -0.20287494      -3.18681830       0.00468188       0.04975323       0.00729144       7.72913905       0.80461934      -3.56264051      31.65855735       2.25657752       2.81772473       4.27188236       4.02293702       0.00100000       0.00000000      12.18455008      -0.00100000 
      0.67000000       0.00000000      -0.18279397      -0.75949290       0.89033934      -9.94178214       0.58871652      -0.99758226      -2.89600527      -3.77053351       4.25203129       0.00000000       0.00000000       0.00000000     -16.70904539      14.23781139     -13.57032499      37.03346360      70.00000000       0.00000000     -13.26232138      -8.95934122     -49.89689715      10.60358888      70.00000000       0.00000000      -5.02783879       1.87184504      -7.12308540      -0.00050980       0.00179217       0.00021905      -0.99350804      -0.19981215      -3.18170409       0.00467893       0.04975068       0.00725455       7.74214936       0.80319866      -3.56022761      31.87011503       2.43843087       2.73449993       2.88851079       4.16406896       0.00100000       0.00000000      12.54996291      -0.00100000 
      0.67500000       0.00000000      -0.18311334      -0.75294889       0.88850807     -10.00688962       0.44072790      -1.14868286      -2.84219911      -3.61874309       4.52543872       0.00000000       0.00000000       0.00000000     -16.87798144      14.39117088     -13.53324622      37.22308225      70.00000000       0.00000000     -13.32531796      -9.44547552     -50.52839774      10.61207662      70.00000000       0.00000000      -5.38661704       1.97951168      -6.94067488      -0.00051485       0.00179932       0.00022231      -0.91655906      -0.19487524      -3.17346440       0.00467417       0.04974656       0.00719507       7.76313820       0.80091157      -3.55633457      32.09619940       2.62301560       2.69171792       1.66803906       4.30893988       0.00100000       0.00000000      12.92353651      -0.00100000 
      0.68000000       0.00000000      -0.18345439      -0.74638441       0.88666975     -10.05836139       0.29503180      -1.29900910      -2.80639690      -3.46964944       4.79241230       0.00000000       0.00000000       0.00000000     -17.03729713      14.54146749     -13.51592879      37.39996543      70.00000000       0.00000000     -13.38175986      -9.91494261     -51.16463664      10.62728706      70.00000000       0.00000000      -5.74601781       2.07778335      -6.75732785      -0.00052194       0.00180937       0.00022689      -0.80834777      -0.18793356      -3.16188709       0.00466750       0.04974073       0.00711142       7.79268728       0.79770189      -3.55085281      32.33322970       2.80414543       2.66135629       0.61633033       4.45043834       0.00100000       0.00000000      13.30496923      -0.00100000 
